# AST/ASF file generated using VICON BodyLanguage
# -----------------------------------------------
:version 1.10
:name VICON
:units
  mass 1.0
  length 0.45
  angle deg
:documentation
   .ast/.asf automatically generated from VICON data using
   VICON BodyBuilder and BodyLanguage model FoxedUp or BRILLIANT.MOD
:root
   order TX TY TZ RX RY RZ
   axis XYZ
   position 0 0 0  
   orientation 0 0 0 
:bonedata
  begin
     id 1 
     name lhipjoint
     direction 0.661853 -0.702389 0.261917 
     length 2.64193 
     axis 0 0 0  XYZ
  end
  begin
     id 2 
     name lfemur
     direction 0.34202 -0.939693 0  
     length 7.01722  
     axis 0 0 20  XYZ
    dof rx ry rz
    limits (-160.0 20.0)
           (-70.0 70.0)
           (-60.0 70.0)
  end
  begin
     id 3 
     name ltibia
     direction 0.34202 -0.939693 0   
     length 8.25008   
     axis 0 0 20   XYZ
    dof rx
    limits (-10.0 170.0)
  end
  begin
     id 4 
     name lfoot
     direction 0.0709916 -0.195048 0.978221   
     length 2.31941   
     axis -90 7.62852e-016 20   XYZ
    dof rx rz
    limits (-45.0 90.0)
           (-70.0 20.0)
  end
  begin
     id 5 
     name ltoes
     direction 1.53586e-011 -4.22017e-011 1   
     length 1.16486   
     axis -90 7.62852e-016 20   XYZ
    dof rx
    limits (-90.0 20.0)
  end
  begin
     id 6 
     name rhipjoint
     direction -0.638185 -0.721362 0.268992   
     length 2.57244  
     axis 0 0 0  XYZ 
  end
  begin
     id 7 
     name rfemur
     direction -0.34202 -0.939693 0   
     length 7.07017   
     axis 0 0 -20   XYZ
    dof rx ry rz
    limits (-160.0 20.0)
           (-70.0 70.0)
           (-70.0 60.0)
  end
  begin
     id 8 
     name rtibia
     direction -0.34202 -0.939693 0   
     length 8.20386   
     axis 0 0 -20   XYZ
    dof rx
    limits (-10.0 170.0)
 end
 begin
     id 9 
     name rfoot
     direction -0.0822429 -0.225961 0.970658   
     length 2.32215  
     axis -90 -7.62852e-016 -20   XYZ
    dof rx rz
    limits (-45.0 90.0)
           (-20.0 70.0)
  end
  begin
     id 10 
     name rtoes
     direction -1.53597e-011 -4.21689e-011 1   
     length 1.16333   
     axis -90 -7.62852e-016 -20   XYZ
    dof rx
    limits (-90.0 20.0)
  end
  begin
     id 11 
     name lowerback
     direction -0.0131557 0.998589 -0.0514484   
     length 2.14993   
     axis 0 0 0   XYZ
    dof rx ry rz
    limits (-20.0 45.0)
           (-30.0 30.0)
           (-30.0 30.0)
  end
  begin
     id 12 
     name upperback
     direction -0.000776481 0.999993 0.00352685   
     length 2.15301   
     axis 0 0 0   XYZ
    dof rx ry rz
    limits (-20.0 45.0)
           (-30.0 30.0)
           (-30.0 30.0)
  end
  begin
     id 13 
     name thorax
     direction 0.00438186 0.999609 0.0276143   
     length 2.15424   
     axis 0 0 0   XYZ
    dof rx ry rz
    limits (-20.0 45.0)
           (-30.0 30.0)
           (-30.0 30.0)
  end
  begin
     id 14 
     name lowerneck
     direction -0.0488006 0.998094 0.0377807   
     length 1.90481   
     axis 0 0 0   XYZ
    dof rx ry rz
    limits (-20.0 45.0)
           (-30.0 30.0)
           (-30.0 30.0)
  end
  begin
     id 15 
     name upperneck
     direction 0.0443769 0.990702 -0.12861   
     length 1.91305   
     axis 0 0 0   XYZ
    dof rx ry rz
    limits (-20.0 45.0)
           (-30.0 30.0)
           (-30.0 30.0)
  end
  begin
     id 16
     name head
     direction 0.0165599 0.998647 -0.0492982  
     length 1.92369  
     axis 0 0 0   XYZ
    dof rx ry rz
    limits (-20.0 45.0)
           (-30.0 30.0)
           (-30.0 30.0)
  end
  begin
     id 17 
     name lclavicle
     direction 0.911936 0.410197 -0.0105506  
     length 3.52622  
     axis 0 0 0   XYZ
    dof ry rz
    limits (-20.0 10.0)
           (0.0 20.0)
  end
  begin
     id 18 
     name lhumerus
     direction 1 -4.48974e-011 -2.48591e-028   
     length 5.47651   
     axis 180 -30 -90   XYZ
    dof rx ry rz
    limits (-60.0 90.0)
           (-90.0 90.0)
           (-90.0 90.0)
  end
  begin
     id 19
     name lradius
     direction 1 -4.48938e-011 -4.40099e-027   
     length 3.09058   
     axis 180 -30 -90   XYZ
    dof rx
    limits (-10.0 170.0)
  end
  begin
     id 20
     name lwrist
     direction 1 -4.49042e-011 -2.99852e-027   
     length 1.54529   
     axis 1.95339e-015 90 90   XYZ
    dof ry
    limits (-180.0 0.0)
 end
  begin
     id 21 
     name lhand
     direction 1 -4.48815e-011 -5.98193e-027   
     length 0.771611   
     axis 3.82337e-015 90 90   XYZ
    dof rx rz
    limits (-90.0 90.0)
           (-45.0 45.0)
  end
  begin
     id 22 
     name lfingers
     direction 1 -4.49034e-011 -1.1993e-026   
     length 0.622093   
     axis 7.64668e-015 90 90   XYZ
    dof rx
    limits (0.0 90.0)
  end
  begin
     id 23
     name lthumb
     direction 0.707107 -6.34867e-011 0.707107   
     length 0.893204   
     axis -90 45 -1.62303e-014   XYZ
    dof rx rz
    limits (-45.0 45.0)
           (-45.0 45.0)
  end
  begin
     id 24 
     name rclavicle
     direction -0.93442 0.355634 -0.0195692   
     length 3.62463  
     axis 0 0 0   XYZ 
    dof ry rz
    limits (-10.0 20.0)
           (-20.0 0.0)
  end
  begin
     id 25 
     name rhumerus
     direction -1 -4.48957e-011 -1.19147e-027  
     length 5.14182   
     axis 180 30 90   XYZ
    dof rx ry rz
    limits (-90.0 60.0)
           (-90.0 90.0)
           (-90.0 90.0)
  end
  begin
     id 26 
     name rradius
     direction -1 -4.48952e-011 -3.81062e-027   
     length 3.35565   
     axis 180 30 90   XYZ
    dof rx
    limits (-10.0 170.0)
  end
  begin
     id 27 
     name rwrist
     direction -1 -4.48973e-011 -2.99621e-027   
     length 1.67782   
     axis 1.95339e-015 -90 -90   XYZ
    dof ry
    limits (-180.0 0.0)
  end
  begin
     id 28
     name rhand
     direction -1 -4.48895e-011 -5.98727e-027   
     length 0.801042   
     axis 3.82337e-015 -90 -90   XYZ
    dof rx rz
    limits (-90.0 90.0)
           (-45.0 45.0)
  end
  begin
     id 29
     name rfingers
     direction -1 -4.49065e-011 -1.19972e-026   
     length 0.645821   
     axis 7.64668e-015 -90 -90   XYZ
    dof rx
    limits (0.0 90.0)
  end
  begin
     id 30
     name rthumb
     direction -0.707107 -6.34957e-011 0.707107   
     length 0.927273   
     axis -90 -45 1.62303e-014   XYZ
    dof rx rz
    limits (-45.0 45.0)
           (-45.0 45.0)
  end
:hierarchy
  begin
    root lhipjoint rhipjoint lowerback
    lhipjoint lfemur
    lfemur ltibia
    ltibia lfoot
    lfoot ltoes
    rhipjoint rfemur
    rfemur rtibia
    rtibia rfoot
    rfoot rtoes
    lowerback upperback
    upperback thorax
    thorax lowerneck lclavicle rclavicle
    lowerneck upperneck
    upperneck head
    lclavicle lhumerus
    lhumerus lradius
    lradius lwrist
    lwrist lhand lthumb
    lhand lfingers
    rclavicle rhumerus
    rhumerus rradius
    rradius rwrist
    rwrist rhand rthumb
    rhand rfingers
  end

#!OML:ASF E:\Style4\Style4.ASF
:FULLY-SPECIFIED
:DEGREES
582
root -0.296066 17.8583 -1.92603 6.11977 -2.33159 3.03066
lowerback 10.2481 1.91632 -1.17036
upperback 2.27021 2.42399 0.270308
thorax -3.43767 1.21069 0.622302
lowerneck -2.00842 -4.54379 -5.69173
upperneck 2.26669 -6.01628 4.62335
head 1.40145 -2.99246 2.32841
rclavicle 1.31198e-014 -4.77083e-015
rhumerus 25.0281 7.45733 -64.1546
rradius 73.2489
rwrist -67.2428
rhand -17.7934 19.0272
rfingers 7.12502
rthumb 8.46971 -10.7829
lclavicle 1.31198e-014 -4.77083e-015
lhumerus 26.1903 -11.8126 62.5516
lradius 77.0198
lwrist 75.4522
lhand -3.18604 30.2777
lfingers 7.12502
lthumb 22.5354 58.9826
rfemur -24.2198 -0.206093 16.7124
rtibia 33.7015
rfoot -14.6581 -13.088
rtoes -10.8689
lfemur -21.07 1.00334 -21.1093
ltibia 29.6133
lfoot -14.998 9.21472
ltoes -15.539
583
root -0.288713 17.8628 -1.92294 6.08934 -2.51166 2.90623
lowerback 10.302 1.92346 -0.937406
upperback 2.27422 2.45955 0.327014
thorax -3.45681 1.2264 0.54396
lowerneck -2.11795 -4.52507 -5.65328
upperneck 2.44369 -5.98921 4.5638
head 1.47238 -2.97853 2.29901
rclavicle 2.68359e-014 0
rhumerus 24.8333 8.0459 -63.9589
rradius 73.4576
rwrist -65.8282
rhand -18.537 19.6903
rfingers 7.12502
rthumb 7.75202 -10.1476
lclavicle 2.68359e-014 0
lhumerus 25.9097 -12.3945 61.9365
lradius 77.1569
lwrist 75.1888
lhand -3.52233 30.3752
lfingers 7.12502
lthumb 22.2126 59.1189
rfemur -24.0945 -0.101604 16.8126
rtibia 33.5003
rfoot -14.5729 -13.0308
rtoes -10.8303
lfemur -20.9977 1.0888 -21.005
ltibia 29.6149
lfoot -15.0301 9.28628
ltoes -15.2944
584
root -0.282652 17.8657 -1.9195 6.07496 -2.67923 2.80724
lowerback 10.3103 1.91296 -0.768285
upperback 2.27919 2.4663 0.401049
thorax -3.45261 1.22841 0.524734
lowerneck -2.2161 -4.49145 -5.64138
upperneck 2.62428 -5.94165 4.49673
head 1.54221 -2.95496 2.27287
rclavicle 7.95139e-016 7.95139e-016
rhumerus 24.718 8.74866 -63.6556
rradius 73.6718
rwrist -64.2434
rhand -19.4918 20.4825
rfingers 7.12502
rthumb 6.83038 -9.38733
lclavicle 7.95139e-016 7.95139e-016
lhumerus 25.6106 -13.02 61.1686
lradius 77.4846
lwrist 74.8724
lhand -4.02848 30.6348
lfingers 7.12502
lthumb 21.7266 59.4355
rfemur -23.9989 0.00778852 16.8911
rtibia 33.3292
rfoot -14.4881 -12.9978
rtoes -10.9031
lfemur -20.9385 1.17698 -20.926
ltibia 29.6055
lfoot -15.079 9.35228
ltoes -14.9662
585
root -0.274049 17.869 -1.91573 6.07831 -2.83972 2.77256
lowerback 10.288 1.87964 -0.649843
upperback 2.29144 2.43732 0.466428
thorax -3.42502 1.21312 0.530868
lowerneck -2.28824 -4.4515 -5.55607
upperneck 2.71052 -5.88436 4.3475
head 1.57033 -2.92715 2.20789
rclavicle -3.35946e-014 -3.97569e-015
rhumerus 24.6713 9.46609 -63.3877
rradius 73.8931
rwrist -62.4021
rhand -20.3617 21.2858
rfingers 7.12502
rthumb 5.99058 -8.60951
lclavicle -3.35946e-014 -3.97569e-015
lhumerus 25.3244 -13.6495 60.2957
lradius 77.9285
lwrist 74.3573
lhand -4.79755 30.8734
lfingers 7.12502
lthumb 20.9879 59.7578
rfemur -23.9364 0.108372 16.8896
rtibia 33.1816
rfoot -14.4654 -12.9155
rtoes -10.8711
lfemur -20.9009 1.24556 -20.9256
ltibia 29.5977
lfoot -15.1287 9.44161
ltoes -15.1747
586
root -0.260859 17.8731 -1.91169 6.06792 -3.03724 2.7767
lowerback 10.2472 1.8441 -0.55988
upperback 2.33652 2.40274 0.546426
thorax -3.3549 1.19522 0.57007
lowerneck -2.39385 -4.38516 -5.47899
upperneck 2.75783 -5.78762 4.16039
head 1.58866 -2.88002 2.13286
rclavicle -5.96354e-016 1.43125e-014
rhumerus 24.7479 10.1758 -63.0753
rradius 74.0887
rwrist -60.246
rhand -21.1863 21.9349
rfingers 7.12502
rthumb 5.19447 -7.98148
lclavicle -5.96354e-016 1.43125e-014
lhumerus 25.0345 -14.2016 59.5524
lradius 78.2632
lwrist 73.1806
lhand -5.73329 31.072
lfingers 7.12502
lthumb 20.0887 60.0535
rfemur -23.8533 0.131551 16.8392
rtibia 33.0263
rfoot -14.4134 -12.6912
rtoes -10.7717
lfemur -20.854 1.35185 -20.9805
ltibia 29.6026
lfoot -15.1788 9.51402
ltoes -15.096
587
root -0.250093 17.8766 -1.90865 6.07206 -3.23372 2.70305
lowerback 10.226 1.82664 -0.400065
upperback 2.37941 2.39983 0.645477
thorax -3.29637 1.19254 0.584927
lowerneck -2.56057 -4.32659 -5.4713
upperneck 2.80369 -5.69843 4.05278
head 1.62381 -2.83565 2.09525
rclavicle -8.94531e-015 0
rhumerus 24.8335 10.8576 -62.6911
rradius 74.3316
rwrist -57.6144
rhand -22.3262 22.3289
rfingers 7.12502
rthumb 4.09377 -7.61147
lclavicle -8.94531e-015 0
lhumerus 24.8585 -14.8312 58.822
lradius 78.4384
lwrist 71.2466
lhand -6.51421 31.3564
lfingers 7.12502
lthumb 19.338 60.4149
rfemur -23.7789 0.155046 16.8878
rtibia 32.8494
rfoot -14.339 -12.5174
rtoes -10.8109
lfemur -20.8359 1.47305 -20.9387
ltibia 29.6091
lfoot -15.2299 9.57715
ltoes -14.6772
588
root -0.240689 17.8804 -1.90446 6.10114 -3.42947 2.56031
lowerback 10.1859 1.83242 -0.178818
upperback 2.40035 2.43417 0.748659
thorax -3.24841 1.20805 0.564945
lowerneck -2.66084 -4.29129 -5.39814
upperneck 2.79553 -5.64549 3.95582
head 1.62965 -2.80902 2.05003
rclavicle -2.22639e-014 4.77083e-015
rhumerus 24.8271 11.5676 -62.2149
rradius 74.6544
rwrist -54.4641
rhand -24.0278 22.9122
rfingers 7.12502
rthumb 2.45048 -7.05344
lclavicle -2.22639e-014 4.77083e-015
lhumerus 24.7528 -15.6807 58.0014
lradius 78.5996
lwrist 68.4405
lhand -7.55728 31.4852
lfingers 7.12502
lthumb 18.3348 60.6411
rfemur -23.742 0.235902 17.0085
rtibia 32.6635
rfoot -14.2116 -12.4144
rtoes -11.0909
lfemur -20.8339 1.68372 -20.8333
ltibia 29.6027
lfoot -15.2759 9.58093
ltoes -14.062
589
root -0.230482 17.8849 -1.89848 6.09412 -3.64273 2.52437
lowerback 10.1706 1.82934 -0.0552397
upperback 2.40399 2.44471 0.801964
thorax -3.23353 1.21244 0.550041
lowerneck -2.65038 -4.26032 -5.27059
upperneck 2.73222 -5.60466 3.84842
head 1.59631 -2.78892 1.9938
rclavicle -1.0138e-014 1.43125e-014
rhumerus 24.7938 12.2604 -61.791
rradius 74.931
rwrist -50.9861
rhand -25.4205 23.5759
rfingers 7.12502
rthumb 1.10544 -6.40094
lclavicle -1.0138e-014 1.43125e-014
lhumerus 24.5994 -16.6875 57.0906
lradius 78.6914
lwrist 64.7406
lhand -8.94498 30.9831
lfingers 7.12502
lthumb 16.9994 60.2592
rfemur -23.6676 0.254552 17.0088
rtibia 32.4789
rfoot -14.0865 -12.2611
rtoes -11.5233
lfemur -20.7754 1.9172 -20.8511
ltibia 29.5896
lfoot -15.3521 9.52931
ltoes -13.6979
590
root -0.219979 17.8903 -1.89249 6.10254 -3.85038 2.58046
lowerback 10.1369 1.82094 -0.0186009
upperback 2.40643 2.43767 0.816624
thorax -3.2114 1.2087 0.54673
lowerneck -2.6361 -4.22974 -5.15371
upperneck 2.64434 -5.56521 3.78355
head 1.55666 -2.76889 1.95368
rclavicle 3.08116e-014 -7.95139e-016
rhumerus 24.7852 12.8236 -61.4568
rradius 75.1097
rwrist -47.3486
rhand -26.3782 24.6685
rfingers 7.12502
rthumb 0.180482 -5.31116
lclavicle 3.08116e-014 -7.95139e-016
lhumerus 24.4996 -17.7142 56.1067
lradius 78.6659
lwrist 59.7781
lhand -9.86286 30.2855
lfingers 7.12502
lthumb 16.1157 59.6355
rfemur -23.5911 0.26039 16.9111
rtibia 32.3047
rfoot -14.012 -12.1025
rtoes -11.671
lfemur -20.7303 2.04527 -20.9611
ltibia 29.5715
lfoot -15.4601 9.59312
ltoes -13.7843
591
root -0.210119 17.8941 -1.88749 6.15669 -4.08556 2.55357
lowerback 10.0713 1.83073 0.0865889
upperback 2.40655 2.46272 0.861317
thorax -3.17296 1.2205 0.532973
lowerneck -2.65889 -4.18453 -5.10559
upperneck 2.57425 -5.50433 3.78167
head 1.53334 -2.73761 1.94625
rclavicle -1.09332e-014 -8.74653e-015
rhumerus 24.7932 13.226 -61.2087
rradius 75.367
rwrist -43.7031
rhand -27.2071 25.6756
rfingers 7.12502
rthumb -0.620127 -4.3032
lclavicle -1.09332e-014 -8.74653e-015
lhumerus 24.488 -18.6345 55.1688
lradius 78.7469
lwrist 53.7046
lhand -10.2745 30.5346
lfingers 7.12502
lthumb 15.7193 59.9162
rfemur -23.5883 0.360615 16.8962
rtibia 32.1657
rfoot -13.9854 -11.9122
rtoes -11.1813
lfemur -20.7202 2.14301 -20.9783
ltibia 29.5263
lfoot -15.5514 9.75569
ltoes -13.8993
